<svg xmlns="http://www.w3.org/2000/svg" viewBox="0 0 1000 1000">
  <path d="M500 60c25 30 65 45 100 35s65-40 100-45 75 10 105 30 65 35 85 65 25 70 20 105 5 75 20 105 45 55 50 90-5 75-15 105-15 65-10 100 20 70 10 105-35 60-50 90-20 70-40 95-55 40-85 50-65 5-100 0-65 15-100 20-70 20-105 10-60-35-90-50-40-55-50-90 5-70 10-105-20-65-20-100 15-70 15-105-35-55-50-85-20-70-20-105 15-70 30-100 45-45 80-50 70 10 100 20 55 40 80 65z" fill="#5C3D2E"/>
  <path d="M420 540l80 80 180-180" fill="none" stroke="white" stroke-width="60" stroke-linecap="round" stroke-linejoin="round"/>
</svg>
